<svg width="85" height="65" viewBox="0 0 85 65" fill="none" xmlns="http://www.w3.org/2000/svg">
<path d="M42.1468 20.9301L37.6525 48.8441C37.3432 50.7707 35.5273 52.334 33.6007 52.334H23.1337C21.2071 52.334 19.8962 50.7707 20.2055 48.8441L20.4864 47.0991C20.1204 49.3775 18.3527 51.3183 16.202 52.0333C15.6288 52.2262 15.0216 52.3312 14.4088 52.3312H7.43169C2.61384 52.3312 -0.663317 48.427 0.114121 43.6091L2.08042 31.3971C3.32034 23.6908 10.5783 17.4401 18.2846 17.4401H39.2187C41.1453 17.4401 42.4561 19.0035 42.1468 20.9301ZM23.2954 29.6521C23.4515 28.6874 22.796 27.9072 21.8313 27.9072C20.8666 27.9072 19.9615 28.6874 19.8054 29.6521L18.12 40.1192C17.964 41.0839 18.6166 41.8642 19.5841 41.8642C20.5517 41.8642 21.4539 41.0839 21.61 40.1192L23.2954 29.6521Z" fill="#252522"/>
<path d="M77.9175 35.1594C77.3614 35.1594 76.8393 34.8615 76.5584 34.365L68.855 20.7002L54.1035 17.6103C53.4538 17.4741 52.9629 16.9435 52.8749 16.2853C52.7898 15.627 53.1275 14.9886 53.7205 14.6907L82.568 0.166208C83.0929 -0.0976673 83.7228 -0.0437573 84.1966 0.302401C84.6705 0.651397 84.906 1.23589 84.8095 1.81472L79.4582 33.8542C79.3504 34.5068 78.8397 35.0204 78.1899 35.1339C78.0991 35.1509 78.0083 35.1566 77.9204 35.1566L77.9175 35.1594ZM59.1115 15.471L70.1885 17.7919C70.6283 17.8827 71.0085 18.1608 71.227 18.5523L77.106 28.9825L81.2202 4.33713L59.1086 15.471H59.1115Z" fill="#252522"/>
<path d="M65.7792 30.3104H55.3122C53.3856 30.3104 51.6293 31.5049 51.3938 32.9775L49.4587 44.9852C49.3396 45.7229 48.4656 46.3188 47.4981 46.3188C46.5306 46.3188 45.8496 45.7229 45.9688 44.9852L47.9038 32.9775C48.1422 31.5049 46.7717 30.3104 44.8452 30.3104H41.7865L38.7732 49.0256C38.3703 51.5168 36.1004 53.4689 33.6007 53.4689H27.1599L25.7327 62.3329C25.4943 63.8055 26.8648 65 28.7914 65H39.2584C41.185 65 42.9413 63.8055 43.1768 62.3329L44.6806 52.9923C44.7998 52.2545 45.6737 51.6587 46.6412 51.6587C47.6088 51.6587 48.2897 52.2545 48.1706 52.9923L46.6668 62.3329C46.4284 63.8055 47.7989 65 49.7254 65H60.1925C62.119 65 63.8754 63.8055 64.1109 62.3329L68.8379 32.9775C69.0763 31.5049 67.7058 30.3104 65.7792 30.3104Z" fill="#252522"/>
</svg>
