<svg width="232" height="103" viewBox="0 0 232 103" fill="none" xmlns="http://www.w3.org/2000/svg">
<path d="M41.2421 25.6574L36.8442 52.9721C36.5415 54.8573 34.7646 56.3872 32.8794 56.3872H22.637C20.7518 56.3872 19.4691 54.8573 19.7717 52.9721L20.0466 51.2646C19.6884 53.4941 17.9587 55.3932 15.8542 56.0929C15.2933 56.2817 14.6992 56.3844 14.0994 56.3844H7.27215C2.55773 56.3844 -0.649077 52.564 0.111671 47.8496L2.03575 35.8997C3.24906 28.3589 10.3512 22.2423 17.8921 22.2423H38.3768C40.262 22.2423 41.5447 23.7722 41.2421 25.6574ZM22.7953 34.1922C22.948 33.2482 22.3066 32.4847 21.3626 32.4847C20.4187 32.4847 19.533 33.2482 19.3803 34.1922L17.731 44.4345C17.5783 45.3785 18.2169 46.1421 19.1637 46.1421C20.1105 46.1421 20.9934 45.3785 21.1461 44.4345L22.7953 34.1922Z" fill="#252522"/>
<path d="M77.7524 42.727C76.5363 50.2679 69.4369 56.3844 61.8961 56.3844H51.6538C44.1129 56.3844 38.982 50.2706 40.1953 42.727L42.944 25.6546C43.2467 23.7694 45.0236 22.2396 46.9088 22.2396H57.1511C59.0364 22.2396 60.3191 23.7694 60.0164 25.6546L56.9929 44.4318C56.8402 45.3757 57.4788 46.1393 58.4255 46.1393C59.3723 46.1393 60.2552 45.3757 60.4079 44.4318L63.4315 25.6546C63.7341 23.7694 65.511 22.2396 67.3962 22.2396H77.6386C79.5238 22.2396 80.8065 23.7694 80.5039 25.6546L77.7552 42.727H77.7524Z" fill="#252522"/>
<path d="M99.3366 35.8997H109.579C114.293 35.8997 117.5 39.7201 116.739 44.4345L116.19 47.8496C115.429 52.564 110.995 56.3844 106.278 56.3844H80.6705C78.7853 56.3844 77.5025 54.8546 77.8052 52.9693L78.3549 49.5543C78.6576 47.6691 80.4345 46.1393 82.3197 46.1393H97.6846C98.6286 46.1393 99.5143 45.3757 99.667 44.4318C99.8197 43.4878 99.1783 42.7242 98.2343 42.7242H87.992C83.2776 42.7242 80.0708 38.9038 80.8315 34.1894L81.3813 30.7744C82.142 26.06 86.576 22.2396 91.2932 22.2396H116.9C118.786 22.2396 120.068 23.7694 119.766 25.6546L119.216 29.0696C118.913 30.9549 117.136 32.4847 115.251 32.4847H99.8863C98.9423 32.4847 98.0566 33.2482 97.9039 34.1922C97.7512 35.1362 98.3926 35.8997 99.3366 35.8997Z" fill="#252522"/>
<path d="M127.082 12H137.324C139.209 12 140.492 13.5298 140.189 15.415L138.265 27.3649C138.623 25.1354 140.353 23.2363 142.458 22.5366C143.019 22.3478 143.613 22.2451 144.212 22.2451H156.162C158.047 22.2451 159.33 23.7749 159.028 25.6601L158.478 29.0752C158.175 30.9604 156.398 32.4902 154.513 32.4902H139.148C138.204 32.4902 137.318 33.2537 137.166 34.1977L135.517 44.4401C135.364 45.3841 136.002 46.1476 136.949 46.1476C137.896 46.1476 138.779 45.3841 138.932 44.4401L139.756 39.3203C140.059 37.4351 141.836 35.9053 143.721 35.9053H153.963C155.848 35.9053 157.131 37.4351 156.829 39.3203L156.279 42.7353C156.018 44.3623 155.482 45.9227 154.73 47.3665C151.986 52.6278 146.336 56.3927 140.423 56.3927H130.18C122.639 56.3927 117.508 50.279 118.722 42.7353L123.12 15.4206C123.422 13.5354 125.199 12.0056 127.084 12.0056L127.082 12Z" fill="#252522"/>
<path d="M166.343 12H176.586C178.471 12 179.754 13.5298 179.451 15.415C179.148 17.3002 177.372 18.8301 175.486 18.8301H165.244C163.359 18.8301 162.076 17.3002 162.379 15.415C162.681 13.5298 164.458 12 166.343 12ZM177.802 25.6574L173.404 52.9721C173.101 54.8573 171.324 56.3872 169.439 56.3872H159.197C157.312 56.3872 156.029 54.8573 156.332 52.9721L160.729 25.6574C161.032 23.7722 162.809 22.2423 164.694 22.2423H174.937C176.822 22.2423 178.105 23.7722 177.802 25.6574Z" fill="#252522"/>
<path d="M212.666 52.9721C212.363 54.8573 210.586 56.3872 208.701 56.3872H198.459C196.574 56.3872 195.291 54.8573 195.593 52.9721L198.617 34.1922C198.77 33.2482 198.128 32.4847 197.184 32.4847C196.24 32.4847 195.355 33.2482 195.202 34.1922L192.178 52.9721C191.876 54.8573 190.099 56.3872 188.214 56.3872H177.971C176.086 56.3872 174.803 54.8573 175.106 52.9721L179.504 25.6574C179.807 23.7722 181.583 22.2423 183.469 22.2423H193.711C195.596 22.2423 196.879 23.7722 196.576 25.6574L196.301 27.3649C196.66 25.1354 198.389 23.2363 200.494 22.5366C201.055 22.3478 201.649 22.2451 202.249 22.2451H203.956C210.317 22.2451 214.965 26.6014 215.534 32.4875C215.639 33.5814 215.603 34.7225 215.412 35.9025L212.663 52.9749L212.666 52.9721Z" fill="#252522"/>
<path d="M74.8649 60.5574C75.0981 59.1164 73.7571 57.9475 71.8719 57.9475H61.6296C59.7444 57.9475 58.0257 59.1164 57.7953 60.5574L55.9017 72.3073C55.7851 73.0292 54.93 73.6123 53.9832 73.6123C53.0364 73.6123 52.3701 73.0292 52.4867 72.3073L54.3802 60.5574C54.6135 59.1164 53.2724 57.9475 51.3872 57.9475H41.1449C39.2597 57.9475 37.5411 59.1164 37.3106 60.5574L32.685 89.2826C32.4518 90.7236 33.7928 91.8924 35.6781 91.8924H45.9204C47.8056 91.8924 49.5242 90.7236 49.7547 89.2826L51.2262 80.1425C51.3428 79.4206 52.198 78.8376 53.1447 78.8376C54.0915 78.8376 54.7578 79.4206 54.6412 80.1425L53.1697 89.2826C52.9365 90.7236 54.2775 91.8924 56.1627 91.8924H66.4051C68.2903 91.8924 70.0089 90.7236 70.2394 89.2826L74.8649 60.5574Z" fill="#252522"/>
<path d="M111.281 78.2351C110.065 85.7759 102.965 91.8924 95.4245 91.8924H85.1822C77.6414 91.8924 72.5105 85.7787 73.7238 78.2351L76.4725 61.1627C76.7751 59.2774 78.552 57.7476 80.4372 57.7476H90.6796C92.5648 57.7476 93.8475 59.2774 93.5449 61.1627L90.5213 79.9398C90.3686 80.8838 91.0072 81.6473 91.954 81.6473C92.9007 81.6473 93.7836 80.8838 93.9364 79.9398L96.9599 61.1627C97.2625 59.2774 99.0395 57.7476 100.925 57.7476H111.167C113.052 57.7476 114.335 59.2774 114.032 61.1627L111.284 78.2351H111.281Z" fill="#252522"/>
<path d="M148.891 88.4802C147.677 96.021 140.575 102.138 133.034 102.138H112.55C110.665 102.138 109.382 100.608 109.684 98.7225C109.987 96.8373 111.764 95.3075 113.649 95.3075H129.014C129.958 95.3075 130.844 94.544 130.996 93.6L132.096 86.7727C131.738 89.0022 130.008 90.9013 127.904 91.6009C127.343 91.7897 126.748 91.8924 126.149 91.8924H119.321C114.607 91.8924 111.4 88.072 112.161 83.3576L115.734 61.1654C116.037 59.2802 117.814 57.7504 119.699 57.7504H129.941C131.827 57.7504 133.109 59.2802 132.807 61.1654L129.783 79.9426C129.63 80.8866 130.269 81.6501 131.216 81.6501C132.163 81.6501 133.045 80.8866 133.198 79.9426L136.222 61.1654C136.524 59.2802 138.301 57.7504 140.187 57.7504H150.429C152.314 57.7504 153.597 59.2802 153.294 61.1654L148.896 88.4802H148.891Z" fill="#252522"/>
<path d="M188.152 88.4802C187.85 90.3654 186.073 91.8952 184.188 91.8952H173.945C172.06 91.8952 170.777 90.3654 171.08 88.4802L174.104 69.7003C174.256 68.7563 173.615 67.9927 172.671 67.9927C171.727 67.9927 170.841 68.7563 170.689 69.7003L167.665 88.4802C167.362 90.3654 165.585 91.8952 163.7 91.8952H153.458C151.573 91.8952 150.29 90.3654 150.593 88.4802L154.991 61.1654C155.293 59.2802 157.07 57.7504 158.955 57.7504H169.198C171.083 57.7504 172.366 59.2802 172.063 61.1654L171.788 62.873C172.146 60.6435 173.876 58.7444 175.981 58.0447C176.541 57.8559 177.136 57.7532 177.735 57.7532H179.443C185.804 57.7532 190.451 62.1094 191.021 67.9955C191.126 69.0894 191.09 70.2306 190.898 71.4105L188.15 88.483L188.152 88.4802Z" fill="#252522"/>
<path d="M227.284 89.2826C227.051 90.7236 225.335 91.8924 223.45 91.8924H213.207C211.322 91.8924 209.981 90.7236 210.214 89.2826L212.527 74.92C212.644 74.1981 211.975 73.615 211.031 73.615C210.087 73.615 209.229 74.1981 209.112 74.92L206.799 89.2826C206.566 90.7236 204.85 91.8924 202.965 91.8924H192.723C190.837 91.8924 189.496 90.7236 189.73 89.2826L194.355 60.5574C194.588 59.1164 196.304 57.9475 198.189 57.9475H208.432C210.317 57.9475 211.658 59.1164 211.425 60.5574L209.953 69.6975C210.228 67.9927 211.886 66.5406 213.962 66.0048C214.518 65.8604 215.106 65.7827 215.706 65.7827H222.533C227.248 65.7827 230.599 68.7035 230.019 72.3101L227.284 89.2826Z" fill="#252522"/>
<path fill-rule="evenodd" clip-rule="evenodd" d="M230.658 0.297588C231.121 0.63876 231.353 1.21125 231.259 1.77862L226.022 33.1303C225.916 33.7689 225.418 34.2708 224.78 34.3828C224.143 34.4948 223.504 34.1926 223.186 33.6286L215.649 20.2576L201.214 17.2343C200.579 17.1013 200.097 16.5812 200.013 15.9377C199.929 15.2941 200.261 14.6677 200.84 14.3758L229.066 0.16316C229.58 -0.0955467 230.195 -0.0435841 230.658 0.297588ZM206.113 15.1401L216.952 17.4103C217.383 17.5004 217.754 17.7719 217.97 18.155L223.722 28.361L227.75 4.24494L206.113 15.1401Z" fill="#252522"/>
</svg>
